<?xml version="1.0" standalone="no"?>
<!DOCTYPE svg PUBLIC "-//W3C//DTD SVG 20010904//EN"
 "http://www.w3.org/TR/2001/REC-SVG-20010904/DTD/svg10.dtd">
<svg version="1.0" xmlns="http://www.w3.org/2000/svg"
 width="828.000000pt" height="814.000000pt" viewBox="0 0 828.000000 814.000000"
 preserveAspectRatio="xMidYMid meet">
<metadata>
Created by potrace 1.16, written by Peter Selinger 2001-2019
</metadata>
<g transform="translate(0.000000,814.000000) scale(0.100000,-0.100000)"
fill="#000000" stroke="none">
<path d="M6410 8091 c-809 -253 -1499 -659 -2075 -1222 -344 -336 -599 -640
-864 -1033 -85 -126 -271 -421 -271 -430 0 -2 -17 -33 -38 -67 -85 -141 -234
-428 -328 -629 -337 -729 -576 -1537 -684 -2320 -56 -408 -65 -548 -64 -1050
0 -423 2 -498 22 -685 23 -211 49 -406 56 -413 3 -2 16 34 29 80 621 2072 956
2954 1610 4248 466 921 799 1463 1210 1970 68 84 119 143 268 310 158 177 498
513 784 776 99 91 138 126 270 242 22 20 60 54 85 76 55 49 165 146 200 175
l25 20 -40 0 c-22 0 -110 -22 -195 -48z"/>
<path d="M1385 7144 c-114 -22 -227 -84 -315 -173 -127 -128 -178 -259 -167
-434 15 -257 202 -472 465 -533 106 -25 277 -15 367 21 237 96 379 279 393
507 10 177 -42 314 -168 440 -152 153 -360 215 -575 172z"/>
<path d="M2751 6285 c-432 -55 -808 -188 -1058 -373 -167 -124 -362 -352 -448
-522 -59 -118 -109 -256 -137 -380 -20 -91 -23 -130 -22 -290 1 -172 3 -193
31 -300 72 -273 161 -411 338 -525 223 -143 473 -153 734 -28 187 89 405 391
461 638 19 84 40 335 27 335 -3 0 -29 -30 -58 -67 -153 -197 -351 -361 -519
-432 -80 -34 -193 -40 -246 -13 -65 33 -103 86 -130 178 -48 167 30 492 163
677 313 436 739 643 1343 652 l194 3 52 73 c29 41 85 118 124 173 39 54 68
102 63 106 -12 11 -184 57 -298 80 -136 28 -453 35 -614 15z"/>
<path d="M4492 5741 c-33 -54 -62 -104 -64 -111 -2 -7 36 -29 92 -53 117 -49
210 -59 324 -31 192 46 246 121 99 138 -63 7 -117 28 -264 101 -62 30 -115 55
-119 55 -3 0 -34 -44 -68 -99z"/>
<path d="M5405 4550 c-471 -73 -842 -257 -1166 -580 -261 -260 -442 -582 -530
-940 -106 -436 -67 -892 111 -1296 158 -356 376 -621 701 -849 444 -312 1026
-431 1561 -320 608 127 1126 529 1403 1088 227 459 273 984 128 1467 -198 660
-719 1180 -1363 1364 -294 83 -583 106 -845 66z m444 -35 c270 -15 606 -125
866 -285 163 -99 348 -262 481 -421 210 -252 360 -570 425 -904 21 -106 24
-149 24 -360 0 -258 -10 -333 -71 -550 -29 -101 -103 -289 -139 -350 -12 -22
-35 -62 -51 -90 -91 -165 -273 -383 -426 -512 -369 -312 -805 -473 -1280 -473
-341 0 -630 69 -923 222 -59 31 -185 107 -195 118 -3 3 -25 19 -49 35 -24 17
-81 61 -125 99 -766 652 -918 1780 -352 2611 84 124 134 184 252 300 315 311
712 503 1144 554 156 19 191 19 419 6z"/>
<path d="M5401 4454 c-288 -40 -559 -145 -800 -308 -117 -79 -144 -101 -264
-216 -300 -286 -492 -648 -563 -1060 -22 -122 -29 -404 -15 -530 43 -376 191
-729 423 -1005 305 -365 686 -589 1149 -675 147 -28 402 -37 547 -21 338 39
665 167 931 365 421 312 690 765 767 1291 25 167 15 478 -20 639 -35 162 -77
289 -141 423 -162 341 -378 593 -684 797 -217 145 -429 231 -711 287 -140 28
-466 35 -619 13z m579 -58 c215 -40 389 -98 560 -189 511 -270 873 -765 976
-1337 24 -134 30 -423 10 -559 -46 -328 -159 -605 -354 -871 -103 -140 -181
-221 -357 -369 -59 -50 -214 -144 -330 -201 -485 -239 -1057 -252 -1558 -34
-533 231 -934 703 -1071 1259 -44 181 -51 241 -51 460 0 215 14 325 62 495
103 370 323 707 616 943 135 109 231 170 380 242 199 96 337 137 567 170 122
18 431 13 550 -9z"/>
<path d="M5396 4334 c-409 -64 -753 -245 -1042 -547 -324 -339 -494 -765 -494
-1233 1 -626 277 -1144 804 -1508 197 -137 469 -241 739 -283 120 -18 373 -20
497 -3 689 93 1262 573 1480 1239 64 195 83 321 83 551 1 311 -47 518 -182
795 -237 484 -662 827 -1186 956 -200 49 -504 63 -699 33z m429 -34 c296 -27
539 -125 765 -307 211 -171 315 -359 327 -594 9 -166 -22 -294 -106 -438 -136
-232 -425 -386 -691 -368 -325 23 -596 239 -692 552 -16 54 -21 101 -23 200
l-2 130 -44 28 c-114 72 -321 127 -479 127 -391 0 -740 -236 -895 -605 -32
-76 -25 -25 11 83 111 327 310 607 589 826 348 274 797 407 1240 366z m1247
-703 c164 -220 261 -446 320 -740 31 -155 31 -428 0 -599 -39 -211 -130 -451
-242 -633 -198 -323 -487 -541 -842 -637 -64 -17 -110 -22 -203 -22 -139 1
-209 16 -330 74 -408 196 -552 724 -300 1099 240 357 705 451 1061 215 l55
-37 42 23 c220 123 386 342 454 599 35 131 37 324 5 454 -30 121 -76 228 -139
320 -29 43 -53 81 -53 85 1 13 99 -102 172 -201z m-2194 -273 c153 -30 331
-141 436 -270 60 -73 130 -218 150 -311 46 -206 -4 -444 -129 -613 -69 -94
-196 -196 -303 -244 l-42 -19 0 -56 c0 -76 26 -229 51 -304 117 -349 416 -592
794 -648 76 -11 242 -7 282 8 12 4 15 3 8 -4 -21 -22 -216 -56 -390 -68 -87
-6 -259 7 -396 30 -211 37 -499 159 -689 292 -135 95 -347 311 -437 444 -264
389 -340 772 -237 1183 62 247 208 425 437 531 135 63 309 81 465 49z"/>
<path d="M5240 3969 c-133 -8 -268 -34 -390 -76 -85 -29 -217 -89 -225 -104
-8 -12 8 -12 21 0 31 31 250 99 389 121 100 16 303 14 419 -5 181 -29 375
-109 491 -203 112 -90 127 -140 74 -237 -45 -83 -47 -155 -4 -216 39 -54 86
-79 150 -79 109 0 185 84 185 204 0 202 -241 447 -520 529 -203 60 -374 79
-590 66z"/>
<path d="M7237 2752 c-9 -87 -46 -233 -86 -339 -29 -75 -114 -228 -165 -296
-45 -62 -204 -222 -266 -268 -78 -59 -230 -136 -287 -145 -65 -10 -119 21
-165 95 -43 70 -93 101 -162 101 -80 0 -131 -31 -167 -102 -37 -71 -14 -166
52 -222 127 -107 365 -90 605 44 60 33 108 74 199 165 180 179 304 378 383
610 49 144 91 384 72 414 -4 7 -10 -19 -13 -57z"/>
<path d="M4658 2760 c-79 -24 -178 -135 -222 -250 -43 -109 -59 -322 -35 -456
28 -162 135 -415 243 -577 67 -102 185 -237 257 -297 30 -25 60 -51 67 -57 22
-21 94 -69 132 -88 44 -22 35 -13 -65 62 -233 176 -405 437 -487 743 -19 73
-22 110 -23 260 0 158 2 179 21 214 31 61 64 80 147 87 95 7 142 31 178 88 47
73 34 177 -28 233 -45 41 -122 57 -185 38z"/>
</g>
</svg>
